<?xml version="1.0" encoding="UTF-8" standalone="no"?>
<!-- Created with Inkscape (http://www.inkscape.org/) -->

<svg
   xmlns:dc="http://purl.org/dc/elements/1.1/"
   xmlns:cc="http://creativecommons.org/ns#"
   xmlns:rdf="http://www.w3.org/1999/02/22-rdf-syntax-ns#"
   xmlns:svg="http://www.w3.org/2000/svg"
   xmlns="http://www.w3.org/2000/svg"
   xmlns:sodipodi="http://sodipodi.sourceforge.net/DTD/sodipodi-0.dtd"
   xmlns:inkscape="http://www.inkscape.org/namespaces/inkscape"
   width="210mm"
   height="210mm"
   viewBox="0 0 210 210"
   version="1.1"
   id="svg8"
   inkscape:version="0.92.2 5c3e80d, 2017-08-06"
   sodipodi:docname="lizsat logo.svg">
  <defs
     id="defs2" />
  <sodipodi:namedview
     id="base"
     pagecolor="#ffffff"
     bordercolor="#666666"
     borderopacity="1.0"
     inkscape:pageopacity="0.0"
     inkscape:pageshadow="2"
     inkscape:zoom="0.7"
     inkscape:cx="352.52096"
     inkscape:cy="405.62892"
     inkscape:document-units="mm"
     inkscape:current-layer="g4896"
     showgrid="false"
     inkscape:window-width="1910"
     inkscape:window-height="1053"
     inkscape:window-x="1923"
     inkscape:window-y="20"
     inkscape:window-maximized="1"
     inkscape:measure-start="71.7208,456.589"
     inkscape:measure-end="599.02,841.457" />
  <metadata
     id="metadata5">
    <rdf:RDF>
      <cc:Work
         rdf:about="">
        <dc:format>image/svg+xml</dc:format>
        <dc:type
           rdf:resource="http://purl.org/dc/dcmitype/StillImage" />
        <dc:title></dc:title>
      </cc:Work>
    </rdf:RDF>
  </metadata>
  <g
     inkscape:label="Layer 1"
     inkscape:groupmode="layer"
     id="layer1"
     transform="translate(0,-87)">
    <g
       id="g4896"
       transform="matrix(0.8657758,0.09442467,-0.09442467,0.8657758,35.475716,29.539961)">
      <g
         id="g4936"
         transform="rotate(-4.295834,527.40656,56.009717)">
        <g
           id="g3756"
           transform="matrix(-0.42216837,0.01746606,-0.01746606,-0.42216837,162.27898,179.44296)">
          <path
             style="stroke-width:0.94481707"
             id="path3699"
             d="m 324.67798,255.07764 -47.01204,37.78865"
             inkscape:connector-curvature="0" />
          <path
             style="stroke-width:0.94481707"
             id="path3701"
             d="m 288.39583,209.19102 -49.14629,38.24122"
             inkscape:connector-curvature="0" />
          <path
             style="stroke-width:0.94481707"
             id="path3703"
             d="M 253.35046,162.32649 361.21072,298.73908 311.59281,337.97154 203.73254,201.55896 Z"
             inkscape:connector-curvature="0" />
          <path
             style="stroke-width:0.94481707"
             id="path3705"
             d="m 230.82753,172.06961 -14.88328,11.76808"
             inkscape:connector-curvature="0" />
          <path
             style="stroke-width:0.94481707"
             id="path3707"
             d="m 175.90595,102.6202 -14.88327,11.76808"
             inkscape:connector-curvature="0" />
          <g
             transform="matrix(0.93842815,0.10969005,-0.10969005,0.93842815,26.59215,-71.570015)"
             id="g3715"
             style="fill:none;stroke:#000000;stroke-width:16">
            <path
               id="path3709"
               d="m 12.721,285.46 c 9.814,66.54 50.27,100.88 112.41,112.41"
               inkscape:connector-curvature="0" />
            <path
               id="path3711"
               d="m 60.05,285.46 c 5.472,38.03 25,59.948 65.08,65.08"
               inkscape:connector-curvature="0" />
            <path
               id="path3713"
               d="m 95.55,285.46 c 5.632,20.687 16.601,27.37 29.581,29.581"
               inkscape:connector-curvature="0" />
          </g>
          <path
             style="stroke-width:0.94481707"
             id="path3717"
             d="m 136.5101,170.04395 -21.19843,36.91343 40.8072,-12.1139"
             inkscape:connector-curvature="0" />
          <path
             style="stroke-width:0.94481707"
             id="path3719"
             d="m 180.30381,222.30679 c -8.56209,6.76997 -29.77299,-5.7878 -47.37538,-28.04984 -17.60323,-22.26308 -24.9291,-45.79621 -16.36784,-52.56722 8.56207,-6.76996 29.77297,5.78781 47.37536,28.04984 17.60323,22.26307 24.9291,45.79621 16.36786,52.56722 z"
             inkscape:connector-curvature="0" />
          <path
             style="stroke-width:0.94481707"
             id="path3723"
             d="M 154.0502,39.271195 105.97301,77.28541"
             inkscape:connector-curvature="0" />
          <path
             style="stroke-width:0.94481707"
             id="path3725"
             d="M 117.76804,-6.6154192 69.823186,31.064205"
             inkscape:connector-curvature="0" />
          <path
             style="stroke-width:0.94481707"
             id="path3727"
             d="M 82.722666,-53.479945 190.58293,82.93264 140.96501,122.1651 33.104746,-14.247484 Z"
             inkscape:connector-curvature="0" />
        </g>
        <g
           id="g3816"
           transform="matrix(0.07507026,0.09001776,-0.09001776,0.07507026,50.610669,92.923844)">
          <path
             id="path3758"
             d="m 616.06836,79.091797 c -79.292,0 -99.69586,1.514344 -102.63086,1.777344 -6.576,0.248 -11.84766,5.678545 -11.84766,12.310547 0,2.603994 0.82104,5.013874 2.20704,7.005862 v 11.2832 c -8.921,15.168 -26.91016,47.15069 -26.91016,58.42969 v 373.15234 c 0,0.187 0.0378,0.36011 0.0508,0.53711 0.021,0.309 0.0397,0.61619 0.0957,0.91016 0.049,0.257 0.12532,0.49995 0.19532,0.75195 0.072,0.247 0.13642,0.49256 0.23242,0.72656 0.1,0.257 0.22365,0.49147 0.34765,0.73047 0.114,0.224 0.21938,0.44616 0.35938,0.66016 0.138,0.215 0.30075,0.42219 0.46875,0.61719 0.156,0.20494 0.31023,0.41065 0.49023,0.59765 0.187,0.196 0.39571,0.36405 0.59571,0.54102 0.191,0.159 0.36922,0.32656 0.57422,0.47656 0.25891,0.177 0.53835,0.32647 0.81835,0.48047 0.149,0.079 0.28046,0.18781 0.43946,0.25781 1.013,0.472 6.70401,3.033 16.29101,6.375 -0.712,1.194 -1.14843,2.58489 -1.14843,4.08789 v 13.22656 c 0,3.621 2.42582,6.79605 5.92382,7.74805 3.615,0.989 58.85211,15.68664 122.28711,15.68164 37.281,0 77.39463,-5.07719 111.51563,-20.99219 2.828,-1.32 4.63867,-4.16425 4.63867,-7.28125 V 559.0293 c 0,-1.392 -0.38281,-2.67927 -1.00781,-3.82227 4.271,-1.47 8.55042,-3.00111 12.85742,-4.66211 4.149,-1.599 6.21123,-6.24758 4.61523,-10.39258 -0.023,-0.047 -0.0523,-0.0839 -0.0703,-0.13086 V 169.89453 c 0,-11.278 -17.99124,-43.26169 -26.91015,-58.42969 v -7.97656 c 3.37891,-2.198 5.625,-5.991499 5.625,-10.312499 0,-6.667002 -5.32222,-12.113547 -11.94922,-12.310547 -2.82,-0.206 -27.1193,-1.773447 -108.1543,-1.773437 z"
             inkscape:connector-curvature="0"
             sodipodi:nodetypes="scsccsscccccccccccccsscccssccccsccscss"
             transform="translate(-276.29342,-191.43866)" />
          <g
             id="g3762" />
          <g
             id="g3764" />
          <g
             id="g3766" />
          <g
             id="g3768" />
          <g
             id="g3770" />
          <g
             id="g3772" />
          <g
             id="g3774" />
          <g
             id="g3776" />
          <g
             id="g3778" />
          <g
             id="g3780" />
          <g
             id="g3782" />
          <g
             id="g3784" />
          <g
             id="g3786" />
          <g
             id="g3788" />
          <g
             id="g3790" />
        </g>
      </g>
      <text
         xml:space="preserve"
         style="font-style:normal;font-weight:normal;font-size:49.65328217px;line-height:1.25;font-family:sans-serif;letter-spacing:0px;word-spacing:0px;fill:#000000;fill-opacity:1;stroke:none;stroke-width:1.24133193"
         x="-2.42184"
         y="284.90253"
         id="text947"
         transform="rotate(-6.2242862)"><tspan
           sodipodi:role="line"
           id="tspan945"
           x="-2.42184"
           y="284.90253"
           style="font-style:normal;font-variant:normal;font-weight:normal;font-stretch:normal;font-family:Nasalization;-inkscape-font-specification:Nasalization;stroke-width:1.24133193">LizSat</tspan></text>
    </g>
    <g
       id="g4902"
       transform="rotate(-4.295834,343.13148,198.81842)">
      <path
         id="path3938-2"
         d="m 89.329171,124.06279 c 47.294939,-20.88161 92.841909,-21.52039 101.703309,-1.45017 8.77403,19.87241 -22.38467,53.09936 -69.67961,73.98097 -47.293849,20.88113 -92.641489,21.43317 -101.415539,1.56076 -8.860903,-20.06915 22.09798,-53.21043 69.39184,-74.09156 z m 0.92463,1.01769 c 42.326019,-18.68773 83.636169,-18.16884 92.058969,0.90802 8.42279,19.07688 -18.93766,50.1528 -61.26367,68.84053 -42.327089,18.68821 -83.723999,17.96996 -92.146799,-1.10691 -8.42279,-19.07686 19.02547,-49.9539 61.3515,-68.64164 z"
         inkscape:connector-curvature="0"
         style="clip-rule:evenodd;opacity:1;fill-rule:evenodd;stroke-width:1.17517877" />
      <g
         transform="translate(10.580075,-22.091658)"
         id="g4842">
        <path
           style="clip-rule:evenodd;fill-rule:evenodd;stroke-width:1.33915925"
           inkscape:connector-curvature="0"
           d="m 174.25973,149.89407 c 8.16887,0 14.60487,5.94051 14.60487,13.86164 0,7.67338 -6.436,13.61523 -14.60487,13.61523 -8.16888,0 -14.60487,-5.94051 -14.60487,-13.61523 0,-7.92113 6.43599,-13.86164 14.60487,-13.86164 z"
           id="path14" />
        <path
           style="clip-rule:evenodd;fill:#ffffff;fill-rule:evenodd;stroke-width:1.33915925"
           inkscape:connector-curvature="0"
           d="m 174.25973,152.36884 c 6.436,0 11.88102,4.94953 11.88102,11.38553 0,6.18825 -5.44502,11.13912 -11.88102,11.13912 -6.68375,0 -12.13011,-4.95087 -12.13011,-11.13912 0,-6.43466 5.44636,-11.38553 12.13011,-11.38553 z"
           id="path16" />
      </g>
    </g>
  </g>
  <style
     type="text/css"
     class="stylish"
     id="stylish-4">/* AGENT_SHEET
/*
/* Archlinux and ArchAssault Dark Remix v1.7.2
/* Author: prurigro (https://userstyles.org/users/262769)
/* Based on: Arch Linux Dark 2013 (pdq)
*/

@namespace url(http://www.w3.org/1999/xhtml);

/* archlinux.org */</style>
  <style
     type="text/css"
     class="stylish"
     id="stylish-7">@namespace url(http://www.w3.org/1999/xhtml);



/*[theme_drive]*/</style>
</svg>

